# xmcd
#
# Track frame offsets:
#	150
#	24780
#	41051
#	63715
#	81371
#	94455
#	110815
#	134771
#	158602
#
# Disc length: 2382 seconds
#
# Revision: 0
# Processed by: cddbd v1.5.1PL2 Copyright (c) Steve Scherf et al.
# Submitted via: dBpowerAMP V4.0
#
DISCID=7d094c09
DTITLE=Tandy - Did You Think I Was Gone ?
DYEAR=2005
DGENRE=Americana
TTITLE0=I'm The Werewolf
TTITLE1=Bait
TTITLE2=On A Hill
TTITLE3=Evensong
TTITLE4=The Run Run
TTITLE5=Healer
TTITLE6=Misery Boys
TTITLE7=The Window
TTITLE8=Did you Think I Was Gone ?
EXTD=
EXTT0=
EXTT1=
EXTT2=
EXTT3=
EXTT4=
EXTT5=
EXTT6=
EXTT7=
EXTT8=
PLAYORDER=
